# xmcd CD database file
#
# Track frame offsets:
#	182
#	35992
#	70610
#	114295
#	150995
#	171355
#	215500
#	238787
#	270177
#
# Disc length: 3923 seconds
#
# Revision: 0
# Processed by: cddbd v1.5.1PL0 Copyright (c) Steve Scherf et al.
# Submitted via: CDex 1.51
#
DISCID=730f5109
DTITLE=Michal Urbaniak - Some Other Blues
DYEAR=1994
DGENRE=Jazz
TTITLE0=Some Other Blues
TTITLE1=When Sunny Gets Blue
TTITLE2=Nica`s Dream
TTITLE3=Milestones
TTITLE4=Don`t Do It To Me
TTITLE5=All Blues
TTITLE6=The Christmas Song
TTITLE7=First Communion
TTITLE8=Rosemary`s Baby
EXTD=YEAR: 1994
EXTT0=
EXTT1=
EXTT2=
EXTT3=
EXTT4=
EXTT5=
EXTT6=
EXTT7=
EXTT8=
PLAYORDER=
